<?xml version="1.0" standalone="no"?>
<!DOCTYPE svg PUBLIC "-//W3C//DTD SVG 1.1//EN" "http://www.w3.org/Graphics/SVG/1.1/DTD/svg11.dtd">
<svg width="106px" height="120px" viewBox="0 0 128 128" version="1.1" xmlns="http://www.w3.org/2000/svg" xmlns:xlink="http://www.w3.org/1999/xlink">
<defs>
  <linearGradient id="linearGradient-1" y2="114.942679%" x2="30.4400914%" y1="-35.6905737%" x1="68.1279872%">
   <stop offset="0%" stop-color="#FA8E7D"/>
   <stop offset="51.2635191%" stop-color="#F74A5C"/>
   <stop offset="100%" stop-color="#F51D2C"/>
  </linearGradient>
  <linearGradient id="linearGradient-2" y2="162.511755%" x2="74.5363914%" y1="-35.6905737%" x1="68.1279872%">
   <stop offset="0%" stop-color="#FA8E7D"/>
   <stop offset="51.2635191%" stop-color="#F74A5C"/>
   <stop offset="100%" stop-color="#F51D2C"/>
  </linearGradient>
  <linearGradient id="linearGradient-3" y2="100%" x2="69.644116%" y1="0%" x1="69.644116%">
   <stop offset="0%" stop-color="#29CDFF"/>
   <stop offset="37.8600687%" stop-color="#148EFF"/>
   <stop offset="100%" stop-color="#0A60FF"/>
  </linearGradient>
  <linearGradient id="linearGradient-4" y2="157.637507%" x2="138.57919%" y1="-36.7931464%" x1="-19.8191553%">
   <stop offset="0%" stop-color="#29CDFF"/>
   <stop offset="100%" stop-color="#0F78FF"/>
  </linearGradient>
 </defs>
 <g>
  <title>background</title>
  <rect fill="none" id="canvas_background" height="402" width="582" y="-1" x="-1"/>
 </g>
 <g>
  <title>Layer 1</title>
  <g id="svg_1" fill-rule="evenodd" fill="none">
   <g id="Angular">
    <g id="Group-9">
     <path transform="rotate(180 53.21549987792968,63.656593322753906) " fill="url(#linearGradient-1)" id="Path" d="m65.980877,79.568421l-12.4,-19l-7.23,10.49l7.37,0c3.03757,0 5.5,2.46243 5.5,5.5c0,3.03757 -2.46243,5.5 -5.5,5.5l-17.88,0c-2.0451,-0.00093 -3.92081,-1.13652 -4.86967,-2.94817c-0.94887,-1.81166 -0.81418,-4.0002 0.34967,-5.68183l17.87,-25.8c1.03923,-1.50724 2.76139,-2.39726 4.59202,-2.37317c1.83062,0.02408 3.52877,0.95911 4.52798,2.49317l16.88,25.8c1.10495,1.68982 1.19521,3.84921 0.23514,5.62534c-0.96008,1.77614 -2.81613,2.88347 -4.83514,2.88466c-1.86008,0.00781 -3.59665,-0.93016 -4.61,-2.49z"/>
     <path fill="url(#linearGradient-2)" id="Path" d="m70.28,25c-1.21831,0.00041 -2.41519,-0.32037 -3.47,-0.93l-13.94,-8l-13.87,7.93c-2.16682,1.25043 -4.83613,1.24989 -7.00244,-0.00141c-2.16632,-1.2513 -3.50051,-3.56327 -3.5,-6.065c0.0005,-2.50173 1.33562,-4.81316 3.50244,-6.06359l17.34,-10c2.16581,-1.25043 4.83419,-1.25043 7,0l17.42,10c2.81411,1.55077 4.21109,4.81823 3.3879,7.92411c-0.82319,3.10587 -3.65513,5.25249 -6.8679,5.20589z"/>
     <path fill-rule="nonzero" fill="url(#linearGradient-3)" id="Path" d="m52.86,119.92c-1.22895,-0.00066 -2.43608,-0.32486 -3.5,-0.94l-45.43,-26.23c-2.16513,-1.25004 -3.49922,-3.55992 -3.5,-6.06l0,-52.46c0.00078,-2.50008 1.33487,-4.80996 3.5,-6.06l11.23,-6.48c2.16909,-1.32085 4.88343,-1.36328 7.09274,-0.11088c2.20931,1.2524 3.56701,3.60316 3.54776,6.14269c-0.01926,2.53953 -1.41245,4.86943 -3.6405,6.08819l-7.73,4.46l0,44.38l38.43,22.18l36.92962,-21.31405c0.92842,-0.53584 1.50038,-1.52634 1.50038,-2.5983l0,-40.91481c0,-1.07222 -0.57225,-2.06292 -1.50103,-2.59867l-6.17897,-3.56417c-2.16682,-1.25043 -3.50194,-3.56186 -3.50244,-6.06359c-0.00051,-2.50173 1.33368,-4.8137 3.5,-6.065c2.16631,-1.2513 4.83562,-1.25184 7.00244,-0.00141l11.18,6.46c2.16513,1.25004 3.49922,3.55992 3.5,6.06l0,52.46c-0.00078,2.50008 -1.33487,4.80996 -3.5,6.06l-45.43,26.25c-1.06477,0.6108 -2.2725,0.92826 -3.5,0.92z"/>
     <path fill-rule="nonzero" fill="url(#linearGradient-4)" id="Path" d="m78.06,106.45c-11.17,6.55 -25.19,-1.62 -25.19,-1.62l-36.92962,-21.31405c-0.92842,-0.53584 -1.50038,-1.52634 -1.50038,-2.5983l0,-40.91503c0,-1.0721 0.57212,-2.06272 1.50074,-2.5985l6.22926,-3.59412c2.22805,-1.21876 3.62124,-3.54866 3.6405,-6.08819c0.01925,-2.53953 -1.33845,-4.89029 -3.54776,-6.14269c-2.20931,-1.2524 -4.92365,-1.20997 -7.09274,0.11088l-11.23,6.48c-2.16513,1.25004 -3.49922,3.55992 -3.5,6.06l0,52.46c0.00078,2.50008 1.33487,4.80996 3.5,6.06l45.42,26.25c2.16581,1.25043 4.83419,1.25043 7,0l21.7,-12.53l0,-0.02z"/>
    </g>
   </g>
  </g>
 </g>
</svg>